<?xml version="1.0" encoding="iso-8859-1"?>
<!-- Generator: Adobe Illustrator 19.0.0, SVG Export Plug-In . SVG Version: 6.00 Build 0)  -->
<svg version="1.1" id="Capa_1" xmlns="http://www.w3.org/2000/svg" xmlns:xlink="http://www.w3.org/1999/xlink" x="0px" y="0px"
	 viewBox="0 0 430.4 430.4" style="enable-background:new 0 0 430.4 430.4;" xml:space="preserve">
<circle style="fill:#EB5151;" cx="215.2" cy="215.2" r="215.2"/>
<path style="fill:#60574D;" d="M315.6,287.6l-45.6-46c8.4-13.6,12.8-29.2,12.8-46c0-48.8-39.6-88.4-88.4-88.4S106,146.8,106,195.6
	s39.6,88.4,88.4,88.4c18,0,34.4-5.2,48.4-14.4l45.2,45.2c9.6,9.6,23.2,11.2,30.8,3.6C326.8,310.8,325.2,296.8,315.6,287.6z"/>
<path style="fill:#404036;" d="M319.2,318c7.6-7.6,6-21.2-3.6-30.8L270,241.6c8.4-13.6,12.8-29.2,12.8-46
	c0-48.8-39.6-88.4-88.4-88.4c-24.4,0-46.4,10-62.4,26l0,0l186,186C318.4,318.8,318.8,318.4,319.2,318z"/>
<circle style="fill:#EFE4CF;" cx="194.8" cy="195.6" r="64.4"/>
<path style="fill:#FFF4E4;" d="M180.4,133.2c-28.4,6.4-50,32-50,62.8c0,30.4,21.2,56,50,62.8c28.4-6.4,50-32,50-62.8
	C230,165.2,208.8,139.6,180.4,133.2z"/>
<path className="path" d=""></path>
</svg>
